<svg xmlns="http://www.w3.org/2000/svg" xmlns:xlink="http://www.w3.org/1999/xlink" width="500" height="500" viewBox="0 0 500 500" fill="none"><defs><rect id="path_0" x="0" y="0" width="500" height="500" /><linearGradient id="linear_0" x1="0%" y1="50%" x2="100%" y2="50%" gradientUnits="objectBoundingBox"><stop offset="0" stop-color="#E5E5E5" stop-opacity="1" /><stop offset="1" stop-color="#CCCCCC" stop-opacity="0" /></linearGradient><linearGradient id="linear_1" x1="16.863%" y1="86.738%" x2="100%" y2="50%" gradientUnits="objectBoundingBox"><stop offset="0" stop-color="#07D5F0" stop-opacity="1" /><stop offset="1" stop-color="#3388FF" stop-opacity="1" /></linearGradient><filter id="filter_6" x="87.5" y="87.5" width="329" height="329" filterUnits="userSpaceOnUse" color-interpolation-filters="sRGB"><feFlood flood-opacity="0" result="BackgroundImageFix"/>
          <feColorMatrix in="SourceAlpha" type="matrix" values="0 0 0 0 0 0 0 0 0 0 0 0 0 0 0 0 0 0 127 0"/>
          <feOffset dx="5" dy="5"/>
          <feGaussianBlur stdDeviation="3.5"/>
          <feColorMatrix type="matrix" values="0 0 0 0 0 0 0 0 0 0 0 0 0 0 0 0 0 0 0.25 0"/>
          <feBlend mode="normal" in2="BackgroundImageFix" result="effect1_Shadow"/>
          <feBlend mode="normal" in="SourceGraphic" in2="effect1_Shadow" result="shape"/></filter><filter id="filter_8" x="119.69999999999999" y="119.69999999999999" width="264.6" height="264.6" filterUnits="userSpaceOnUse" color-interpolation-filters="sRGB"><feFlood flood-opacity="0" result="BackgroundImageFix"/>
          <feColorMatrix in="SourceAlpha" type="matrix" values="0 0 0 0 0 0 0 0 0 0 0 0 0 0 0 0 0 0 127 0"/>
          <feOffset dx="0" dy="0"/>
          <feGaussianBlur stdDeviation="0"/>
          <feColorMatrix type="matrix" values="0 0 0 0 0 0 0 0 0 0 0 0 0 0 0 0 0 0 0.25 0"/>
          <feBlend mode="normal" in2="BackgroundImageFix" result="effect1_Shadow"/>
          <feBlend mode="normal" in="SourceGraphic" in2="effect1_Shadow" result="shape"/></filter><linearGradient id="linear_2" x1="0%" y1="50%" x2="100%" y2="50%" gradientUnits="objectBoundingBox"><stop offset="0" stop-color="#00BFFF" stop-opacity="1" /><stop offset="1" stop-color="#529DF2" stop-opacity="1" /></linearGradient><filter id="filter_10" x="78" y="78" width="348" height="348" filterUnits="userSpaceOnUse" color-interpolation-filters="sRGB"><feFlood flood-opacity="0" result="BackgroundImageFix"/>
          <feColorMatrix in="SourceAlpha" type="matrix" values="0 0 0 0 0 0 0 0 0 0 0 0 0 0 0 0 0 0 127 0"/>
          <feOffset dx="5" dy="5"/>
          <feGaussianBlur stdDeviation="6"/>
          <feColorMatrix type="matrix" values="0 0 0 0 0 0 0 0 0 0 0 0 0 0 0 0 0 0 0.25 0"/>
          <feBlend mode="normal" in2="BackgroundImageFix" result="effect1_Shadow"/>
          <feBlend mode="normal" in="SourceGraphic" in2="effect1_Shadow" result="shape"/></filter><linearGradient id="linear_3" x1="0%" y1="50%" x2="100%" y2="50%" gradientUnits="objectBoundingBox"><stop offset="0" stop-color="#3388FF" stop-opacity="1" /><stop offset="1" stop-color="#429AFF" stop-opacity="1" /></linearGradient><filter id="filter_14" x="0" y="0" width="214.2" height="214.2" filterUnits="userSpaceOnUse" color-interpolation-filters="sRGB"><feFlood flood-opacity="0" result="BackgroundImageFix"/>
          <feColorMatrix in="SourceAlpha" type="matrix" values="0 0 0 0 0 0 0 0 0 0 0 0 0 0 0 0 0 0 127 0"/>
          <feOffset dx="0" dy="0"/>
          <feGaussianBlur stdDeviation="0"/>
          <feColorMatrix type="matrix" values="0 0 0 0 0 0 0 0 0 0 0 0 0 0 0 0 0 0 0.25 0"/>
          <feBlend mode="normal" in2="BackgroundImageFix" result="effect1_Shadow"/>
          <feBlend mode="normal" in="SourceGraphic" in2="effect1_Shadow" result="shape"/></filter><linearGradient id="linear_4" x1="-16.921397379912673%" y1="58.6849315068493%" x2="100%" y2="58.6849315068493%" gradientUnits="objectBoundingBox"><stop offset="0" stop-color="#3388FF" stop-opacity="1" /><stop offset="1" stop-color="#1071E0" stop-opacity="1" /></linearGradient><filter id="filter_16" x="31.90000000000009" y="0" width="183.19999999999993" height="182.5" filterUnits="userSpaceOnUse" color-interpolation-filters="sRGB"><feFlood flood-opacity="0" result="BackgroundImageFix"/>
          <feColorMatrix in="SourceAlpha" type="matrix" values="0 0 0 0 0 0 0 0 0 0 0 0 0 0 0 0 0 0 127 0"/>
          <feOffset dx="0" dy="0"/>
          <feGaussianBlur stdDeviation="0"/>
          <feColorMatrix type="matrix" values="0 0 0 0 0 0 0 0 0 0 0 0 0 0 0 0 0 0 0.25 0"/>
          <feBlend mode="normal" in2="BackgroundImageFix" result="effect1_Shadow"/>
          <feBlend mode="normal" in="SourceGraphic" in2="effect1_Shadow" result="shape"/></filter><filter id="filter_22" x="44.100000000000094" y="-6.3" width="189.45000000000005" height="177.3" filterUnits="userSpaceOnUse" color-interpolation-filters="sRGB"><feFlood flood-opacity="0" result="BackgroundImageFix"/>
          <feColorMatrix in="SourceAlpha" type="matrix" values="0 0 0 0 0 0 0 0 0 0 0 0 0 0 0 0 0 0 127 0"/>
          <feOffset dx="0" dy="0"/>
          <feGaussianBlur stdDeviation="3.15"/>
          <feColorMatrix type="matrix" values="0 0 0 0 0 0 0 0 0 0 0 0 0 0 0 0 0 0 0.25 0"/>
          <feBlend mode="normal" in2="BackgroundImageFix" result="effect1_Shadow"/>
          <feBlend mode="normal" in="SourceGraphic" in2="effect1_Shadow" result="shape"/></filter></defs><g opacity="1" transform="translate(0 0)  rotate(0 250 250)"><rect fill="#FFFFFF" opacity="1" transform="translate(0 0)  rotate(0 250 250)" x="0" y="0" width="500" height="500" /><mask id="bg-mask-0" fill="white"><use xlink:href="#path_0"></use></mask><g mask="url(#bg-mask-0)" ><path id="矩形 1" fill-rule="evenodd" fill="url(#linear_0)" transform="translate(227.47234400129764 167.3750909856413)  rotate(45 102.63798362202184 159.36255293814833)" opacity="1" d="M0,318.73L205.28,318.73L205.28,0L0,0L0,318.73Z " /><path id="圆形 1" fill-rule="evenodd" style="fill:#FFFFFF" transform="translate(90 90)  rotate(0 162 162)" opacity="0" d="M162,0C72.53,0 0,72.53 0,162C0,251.47 72.53,324 162,324C251.47,324 324,251.47 324,162C324,72.53 251.47,0 162,0Z " /><g id="圆形 1" filter="url(#filter_6)"><path id="圆形 1" fill-rule="evenodd" fill="url(#linear_1)" transform="translate(94.5 94.5)  rotate(0 157.5 157.5)" opacity="1" d="M157.5,0C70.52,0 0,70.52 0,157.5C0,244.48 70.52,315 157.5,315C244.48,315 315,244.48 315,157.5C315,70.52 244.48,0 157.5,0Z " /></g><g id="圆形 1" filter="url(#filter_8)"><path id="圆形 1" fill-rule="evenodd" style="fill:#33A6F2" transform="translate(119.69999999999999 119.69999999999999)  rotate(0 132.3 132.3)" opacity="1" d="M132.3,0C59.23,0 0,59.23 0,132.3C0,205.37 59.23,264.6 132.3,264.6C205.37,264.6 264.6,205.37 264.6,132.3C264.6,59.23 205.37,0 132.3,0Z " /></g><g id="圆形 2" filter="url(#filter_10)"><path id="圆形 2" fill-rule="evenodd" fill="url(#linear_2)" transform="translate(90 90)  rotate(0 162 162)" opacity="1" d="M50,50L274.14,274.14C274.78,274.78 275.64,275.14 276.55,275.13C277.45,275.13 278.31,274.76 278.94,274.11C292.86,259.59 303.96,242.6 311.67,223.99C319.81,204.34 324,183.27 324,162C324,140.73 319.81,119.66 311.67,100.01C303.53,80.35 291.59,62.49 276.55,47.45C261.51,32.41 243.65,20.47 223.99,12.33C204.34,4.19 183.27,0 162,0C140.73,0 119.66,4.19 100.01,12.33C81.46,20.01 64.52,31.07 50.03,44.93C49.34,45.59 48.95,46.5 48.95,47.46C48.94,48.41 49.32,49.33 50,50Z " /></g><g opacity="1" transform="translate(143.10000000000002 144)  rotate(0 113.62500000000006 107.1)"><g id="圆形 1" filter="url(#filter_14)"><path id="圆形 1" fill-rule="evenodd" fill="url(#linear_3)" transform="translate(0 0)  rotate(0 107.1 107.1)" opacity="1" d="M107.1,0C47.95,0 0,47.95 0,107.1C0,166.25 47.95,214.2 107.1,214.2C166.25,214.2 214.2,166.25 214.2,107.1C214.2,47.95 166.25,0 107.1,0Z " /></g><g id="圆形 1" filter="url(#filter_16)"><path id="圆形 1" fill-rule="evenodd" fill="url(#linear_4)" transform="translate(31.90000000000009 0)  rotate(0 91.59999999999997 91.25)" opacity="1" d="M183.2,107.1C183.2,47.95 135.25,0 76.1,0C46.53,0 19.38,11.62 0,31L151.5,182.5C170.88,163.12 183.2,136.67 183.2,107.1Z " /></g><path id="圆形 1" fill-rule="evenodd" style="fill:#0A69C2" transform="translate(26.1 25.2)  rotate(0 81.45 81.45)" opacity="1" d="M81.45,0C36.47,0 0,36.47 0,81.45C0,126.43 36.47,162.9 81.45,162.9C126.43,162.9 162.9,126.43 162.9,81.45C162.9,36.47 126.43,0 81.45,0Z " /><path id="圆形 1" fill-rule="evenodd" style="fill:#005BB0" transform="translate(49.90000000000009 25)  rotate(0 69.44999999999996 69.52192366382215)" opacity="1" d="M115.04,139.04C129.78,124.3 138.9,103.94 138.9,81.45C138.9,36.47 102.43,0 57.45,0C34.96,0 14.74,9.26 0,24L115.04,139.04Z " /><g id="圆形 1" filter="url(#filter_22)"><path id="圆形 1" fill-rule="evenodd" style="fill:#F5DF16" transform="translate(50.40000000000009 0)  rotate(0 88.42500000000001 82.35)" opacity="1" d="M57.6,164.7C73.51,164.7 88.58,158.92 99,148.5C109.42,138.08 115.2,123.01 115.2,107.1C115.2,91.19 176.85,0 176.85,0C176.85,0 73.51,49.5 57.6,49.5C41.69,49.5 26.42,55.08 16,65.5C5.58,75.92 0,91.19 0,107.1C0,138.91 25.79,164.7 57.6,164.7Z " /></g></g><g opacity="1" transform="translate(275.4 272.70000000000005)  rotate(0 2 1)"><text><tspan x="0" y="0.945" font-size="0.9" line-height="0" fill="#FFC300" opacity="1" font-family="AlibabaPuHuiTi-Light" letter-spacing="0" >小白BZS</tspan></text></g><g opacity="1" transform="translate(293.4 246.6)  rotate(0 2 1)"><text><tspan x="0" y="0.945" font-size="0.9" line-height="0" fill="#FFC300" opacity="1" font-family="AlibabaPuHuiTi-Light" letter-spacing="0" >小白BZS</tspan></text></g><g opacity="1" transform="translate(281.7 209.7)  rotate(0 2 1)"><text><tspan x="0" y="0.945" font-size="0.9" line-height="0" fill="#FFC300" opacity="1" font-family="AlibabaPuHuiTi-Light" letter-spacing="0" >小白BZS</tspan></text></g><g opacity="1" transform="translate(314.09999999999997 186.29999999999998)  rotate(0 2 1)"><text><tspan x="0" y="0.945" font-size="0.9" line-height="0" fill="#FFE600" opacity="1" font-family="AlibabaPuHuiTi-Light" letter-spacing="0" >小白BZS</tspan></text></g><path id="圆形 3" fill-rule="evenodd" style="fill:#FFEB3B" transform="translate(192.59252206554152 209.99999999687336)  rotate(0.8568921984652889 50.2000000000001 49.49997204181136)" opacity="1" d="M58.81,99C75.05,99 89.76,92.44 100.4,81.84L16.41,0C5.76,10.6 0,24.25 0,40.42C0,72.77 26.33,99 58.81,99Z " /><path id="多边形 1" fill-rule="evenodd" style="fill:#FFFFFF" transform="translate(223 209)  rotate(0 29.25000000000001 41.71589085072232)" opacity="1" d="M38.65,5.2L3.1,30.33C2.35,30.86 1.89,31.7 1.84,32.62C1.79,33.54 2.16,34.42 2.85,35.03L19.54,49.72C20.43,50.5 20.77,51.72 20.43,52.85L13.53,75.23C13.15,76.45 13.59,77.77 14.62,78.53C15.64,79.29 17.04,79.31 18.09,78.59L55.16,53.28C55.94,52.74 56.43,51.87 56.46,50.92C56.5,49.98 56.09,49.07 55.35,48.47L37.11,33.82C36.13,33.04 35.74,31.74 36.13,30.55L43.23,8.57C43.62,7.34 43.19,6 42.15,5.24C41.11,4.48 39.7,4.46 38.65,5.2Z " /><path id="多边形 1" fill-rule="evenodd" style="fill:#F7F7F7" transform="translate(233.9293647495076 209)  rotate(0 23.785317625246257 29.861264025694574)" opacity="1" d="M0,24.79L34.8,59.72L44.23,53.28C45.01,52.74 45.5,51.87 45.53,50.92C45.57,49.98 45.16,49.07 44.42,48.47L26.18,33.82C25.21,33.04 24.82,31.74 25.21,30.55L32.3,8.57C32.69,7.34 32.26,6 31.22,5.24C30.18,4.48 28.77,4.46 27.72,5.2L0,24.79Z " /></g></g></svg>